<mxfile host="app.diagrams.net" modified="2022-03-09T18:54:48.101Z" agent="5.0 (Windows NT 10.0; Win64; x64) AppleWebKit/537.36 (KHTML, like Gecko) Chrome/99.0.4844.51 Safari/537.36" etag="0fIj_K-Si8EP0f-uOkkm" version="17.0.0" type="github">
  <diagram id="8hOy7J-Tb4VkElEGlRXa" name="Page-1">
    <mxGraphModel dx="2318" dy="1835" grid="1" gridSize="10" guides="1" tooltips="1" connect="1" arrows="1" fold="1" page="1" pageScale="1" pageWidth="850" pageHeight="1100" math="0" shadow="0">
      <root>
        <mxCell id="0" />
        <mxCell id="1" parent="0" />
        <mxCell id="3TvEwHp-FLP5A3JZ4EUk-60" style="edgeStyle=orthogonalEdgeStyle;rounded=0;orthogonalLoop=1;jettySize=auto;html=1;startArrow=none;startFill=0;endArrow=open;endFill=0;startSize=10;endSize=10;" edge="1" parent="1" source="3TvEwHp-FLP5A3JZ4EUk-1" target="3TvEwHp-FLP5A3JZ4EUk-22">
          <mxGeometry relative="1" as="geometry" />
        </mxCell>
        <mxCell id="3TvEwHp-FLP5A3JZ4EUk-61" value="&lt;span style=&quot;font-size: 12px;&quot;&gt;Имеет доступ к&amp;nbsp;&lt;/span&gt;" style="edgeLabel;html=1;align=center;verticalAlign=middle;resizable=0;points=[];fontSize=12;" vertex="1" connectable="0" parent="3TvEwHp-FLP5A3JZ4EUk-60">
          <mxGeometry x="-0.3322" y="1" relative="1" as="geometry">
            <mxPoint as="offset" />
          </mxGeometry>
        </mxCell>
        <mxCell id="3TvEwHp-FLP5A3JZ4EUk-63" style="edgeStyle=orthogonalEdgeStyle;rounded=0;orthogonalLoop=1;jettySize=auto;html=1;fontSize=13;startArrow=diamond;startFill=1;endArrow=none;endFill=0;startSize=10;endSize=10;" edge="1" parent="1" source="3TvEwHp-FLP5A3JZ4EUk-1" target="3TvEwHp-FLP5A3JZ4EUk-15">
          <mxGeometry relative="1" as="geometry">
            <Array as="points">
              <mxPoint x="50" y="100" />
            </Array>
          </mxGeometry>
        </mxCell>
        <mxCell id="3TvEwHp-FLP5A3JZ4EUk-65" style="edgeStyle=orthogonalEdgeStyle;rounded=0;orthogonalLoop=1;jettySize=auto;html=1;fontSize=13;startArrow=diamond;startFill=1;endArrow=none;endFill=0;startSize=10;endSize=10;" edge="1" parent="1" source="3TvEwHp-FLP5A3JZ4EUk-1" target="3TvEwHp-FLP5A3JZ4EUk-37">
          <mxGeometry relative="1" as="geometry">
            <Array as="points">
              <mxPoint x="1010" y="86" />
            </Array>
          </mxGeometry>
        </mxCell>
        <mxCell id="3TvEwHp-FLP5A3JZ4EUk-70" style="edgeStyle=orthogonalEdgeStyle;rounded=0;orthogonalLoop=1;jettySize=auto;html=1;fontSize=13;startArrow=none;startFill=0;endArrow=none;endFill=0;startSize=10;endSize=10;" edge="1" parent="1" source="3TvEwHp-FLP5A3JZ4EUk-1" target="3TvEwHp-FLP5A3JZ4EUk-68">
          <mxGeometry relative="1" as="geometry">
            <Array as="points">
              <mxPoint x="240" y="-214" />
            </Array>
          </mxGeometry>
        </mxCell>
        <mxCell id="3TvEwHp-FLP5A3JZ4EUk-90" value="дружат" style="edgeLabel;html=1;align=center;verticalAlign=middle;resizable=0;points=[];fontSize=13;" vertex="1" connectable="0" parent="3TvEwHp-FLP5A3JZ4EUk-70">
          <mxGeometry x="0.7163" y="-1" relative="1" as="geometry">
            <mxPoint x="-101" as="offset" />
          </mxGeometry>
        </mxCell>
        <mxCell id="3TvEwHp-FLP5A3JZ4EUk-74" style="edgeStyle=orthogonalEdgeStyle;rounded=0;orthogonalLoop=1;jettySize=auto;html=1;fontSize=13;startArrow=diamond;startFill=1;endArrow=none;endFill=0;startSize=10;endSize=10;" edge="1" parent="1" source="3TvEwHp-FLP5A3JZ4EUk-1" target="3TvEwHp-FLP5A3JZ4EUk-72">
          <mxGeometry relative="1" as="geometry">
            <Array as="points">
              <mxPoint x="260" y="-106" />
            </Array>
          </mxGeometry>
        </mxCell>
        <mxCell id="3TvEwHp-FLP5A3JZ4EUk-121" value="отправляет" style="edgeLabel;html=1;align=center;verticalAlign=middle;resizable=0;points=[];fontSize=13;" vertex="1" connectable="0" parent="3TvEwHp-FLP5A3JZ4EUk-74">
          <mxGeometry x="0.3477" y="-1" relative="1" as="geometry">
            <mxPoint x="-1" as="offset" />
          </mxGeometry>
        </mxCell>
        <mxCell id="3TvEwHp-FLP5A3JZ4EUk-113" style="edgeStyle=orthogonalEdgeStyle;rounded=0;orthogonalLoop=1;jettySize=auto;html=1;fontSize=13;startArrow=none;startFill=0;endArrow=open;endFill=0;startSize=10;endSize=10;" edge="1" parent="1" source="3TvEwHp-FLP5A3JZ4EUk-1" target="3TvEwHp-FLP5A3JZ4EUk-96">
          <mxGeometry relative="1" as="geometry">
            <Array as="points">
              <mxPoint x="190" y="-374" />
            </Array>
          </mxGeometry>
        </mxCell>
        <mxCell id="3TvEwHp-FLP5A3JZ4EUk-114" value="может только просмотреть" style="edgeLabel;html=1;align=center;verticalAlign=middle;resizable=0;points=[];fontSize=13;" vertex="1" connectable="0" parent="3TvEwHp-FLP5A3JZ4EUk-113">
          <mxGeometry x="-0.169" y="2" relative="1" as="geometry">
            <mxPoint as="offset" />
          </mxGeometry>
        </mxCell>
        <mxCell id="3TvEwHp-FLP5A3JZ4EUk-1" value="Пользователь" style="swimlane;fontStyle=0;childLayout=stackLayout;horizontal=1;startSize=26;fillColor=none;horizontalStack=0;resizeParent=1;resizeParentMax=0;resizeLast=0;collapsible=1;marginBottom=0;" vertex="1" parent="1">
          <mxGeometry x="170" y="60" width="140" height="52" as="geometry" />
        </mxCell>
        <mxCell id="3TvEwHp-FLP5A3JZ4EUk-2" value="личная информация" style="text;strokeColor=none;fillColor=none;align=left;verticalAlign=top;spacingLeft=4;spacingRight=4;overflow=hidden;rotatable=0;points=[[0,0.5],[1,0.5]];portConstraint=eastwest;fontColor=#FF0000;" vertex="1" parent="3TvEwHp-FLP5A3JZ4EUk-1">
          <mxGeometry y="26" width="140" height="26" as="geometry" />
        </mxCell>
        <mxCell id="3TvEwHp-FLP5A3JZ4EUk-30" style="edgeStyle=orthogonalEdgeStyle;rounded=0;orthogonalLoop=1;jettySize=auto;html=1;endArrow=block;endFill=0;startSize=10;endSize=10;" edge="1" parent="1" source="3TvEwHp-FLP5A3JZ4EUk-9" target="3TvEwHp-FLP5A3JZ4EUk-27">
          <mxGeometry relative="1" as="geometry" />
        </mxCell>
        <mxCell id="3TvEwHp-FLP5A3JZ4EUk-9" value="Фильм" style="swimlane;fontStyle=0;childLayout=stackLayout;horizontal=1;startSize=26;fillColor=none;horizontalStack=0;resizeParent=1;resizeParentMax=0;resizeLast=0;collapsible=1;marginBottom=0;" vertex="1" parent="1">
          <mxGeometry x="600" y="498" width="140" height="78" as="geometry" />
        </mxCell>
        <mxCell id="3TvEwHp-FLP5A3JZ4EUk-10" value="Дата выхода" style="text;strokeColor=none;fillColor=none;align=left;verticalAlign=top;spacingLeft=4;spacingRight=4;overflow=hidden;rotatable=0;points=[[0,0.5],[1,0.5]];portConstraint=eastwest;" vertex="1" parent="3TvEwHp-FLP5A3JZ4EUk-9">
          <mxGeometry y="26" width="140" height="26" as="geometry" />
        </mxCell>
        <mxCell id="3TvEwHp-FLP5A3JZ4EUk-52" value="Продолжительность" style="text;strokeColor=none;fillColor=none;align=left;verticalAlign=top;spacingLeft=4;spacingRight=4;overflow=hidden;rotatable=0;points=[[0,0.5],[1,0.5]];portConstraint=eastwest;" vertex="1" parent="3TvEwHp-FLP5A3JZ4EUk-9">
          <mxGeometry y="52" width="140" height="26" as="geometry" />
        </mxCell>
        <mxCell id="3TvEwHp-FLP5A3JZ4EUk-56" style="edgeStyle=orthogonalEdgeStyle;rounded=0;orthogonalLoop=1;jettySize=auto;html=1;startArrow=diamond;startFill=0;endArrow=none;endFill=0;startSize=10;endSize=10;" edge="1" parent="1" source="3TvEwHp-FLP5A3JZ4EUk-13" target="3TvEwHp-FLP5A3JZ4EUk-27">
          <mxGeometry relative="1" as="geometry">
            <Array as="points">
              <mxPoint x="210" y="370" />
            </Array>
          </mxGeometry>
        </mxCell>
        <mxCell id="3TvEwHp-FLP5A3JZ4EUk-13" value="&lt;&lt;abstract&gt;&gt;&#xa;Список желаний" style="swimlane;fontStyle=0;childLayout=stackLayout;horizontal=1;startSize=70;fillColor=none;horizontalStack=0;resizeParent=1;resizeParentMax=0;resizeLast=0;collapsible=1;marginBottom=0;" vertex="1" parent="1">
          <mxGeometry x="140" y="630" width="140" height="50" as="geometry" />
        </mxCell>
        <mxCell id="3TvEwHp-FLP5A3JZ4EUk-20" style="edgeStyle=orthogonalEdgeStyle;rounded=0;orthogonalLoop=1;jettySize=auto;html=1;endSize=10;startSize=10;endArrow=block;endFill=0;" edge="1" parent="1" source="3TvEwHp-FLP5A3JZ4EUk-15" target="3TvEwHp-FLP5A3JZ4EUk-13">
          <mxGeometry relative="1" as="geometry" />
        </mxCell>
        <mxCell id="3TvEwHp-FLP5A3JZ4EUk-15" value="Публичный список желаний" style="swimlane;fontStyle=0;childLayout=stackLayout;horizontal=1;startSize=32;fillColor=none;horizontalStack=0;resizeParent=1;resizeParentMax=0;resizeLast=0;collapsible=1;marginBottom=0;" vertex="1" parent="1">
          <mxGeometry x="10" y="748" width="160" height="32" as="geometry" />
        </mxCell>
        <mxCell id="3TvEwHp-FLP5A3JZ4EUk-21" style="edgeStyle=orthogonalEdgeStyle;rounded=0;orthogonalLoop=1;jettySize=auto;html=1;endArrow=block;endFill=0;startSize=10;endSize=10;" edge="1" parent="1" source="3TvEwHp-FLP5A3JZ4EUk-17" target="3TvEwHp-FLP5A3JZ4EUk-13">
          <mxGeometry relative="1" as="geometry" />
        </mxCell>
        <mxCell id="3TvEwHp-FLP5A3JZ4EUk-17" value="Скрытый список желаний" style="swimlane;fontStyle=0;childLayout=stackLayout;horizontal=1;startSize=42;fillColor=none;horizontalStack=0;resizeParent=1;resizeParentMax=0;resizeLast=0;collapsible=1;marginBottom=0;" vertex="1" parent="1">
          <mxGeometry x="250" y="748" width="155" height="32" as="geometry" />
        </mxCell>
        <mxCell id="3TvEwHp-FLP5A3JZ4EUk-40" style="edgeStyle=orthogonalEdgeStyle;rounded=0;orthogonalLoop=1;jettySize=auto;html=1;endArrow=none;endFill=0;startSize=10;endSize=10;startArrow=diamond;startFill=1;" edge="1" parent="1" source="3TvEwHp-FLP5A3JZ4EUk-22" target="3TvEwHp-FLP5A3JZ4EUk-27">
          <mxGeometry relative="1" as="geometry" />
        </mxCell>
        <mxCell id="3TvEwHp-FLP5A3JZ4EUk-22" value="Глобальный каталог" style="swimlane;fontStyle=0;childLayout=stackLayout;horizontal=1;startSize=52;fillColor=none;horizontalStack=0;resizeParent=1;resizeParentMax=0;resizeLast=0;collapsible=1;marginBottom=0;" vertex="1" parent="1">
          <mxGeometry x="170" y="311.5" width="140" height="43" as="geometry" />
        </mxCell>
        <mxCell id="3TvEwHp-FLP5A3JZ4EUk-29" style="edgeStyle=orthogonalEdgeStyle;rounded=0;orthogonalLoop=1;jettySize=auto;html=1;endArrow=block;endFill=0;startSize=10;endSize=10;" edge="1" parent="1" source="3TvEwHp-FLP5A3JZ4EUk-25" target="3TvEwHp-FLP5A3JZ4EUk-27">
          <mxGeometry relative="1" as="geometry" />
        </mxCell>
        <mxCell id="3TvEwHp-FLP5A3JZ4EUk-43" style="edgeStyle=orthogonalEdgeStyle;rounded=0;orthogonalLoop=1;jettySize=auto;html=1;startArrow=diamond;startFill=1;endArrow=none;endFill=0;startSize=10;endSize=10;" edge="1" parent="1" source="3TvEwHp-FLP5A3JZ4EUk-25" target="3TvEwHp-FLP5A3JZ4EUk-41">
          <mxGeometry relative="1" as="geometry" />
        </mxCell>
        <mxCell id="3TvEwHp-FLP5A3JZ4EUk-25" value="Сериал" style="swimlane;fontStyle=0;childLayout=stackLayout;horizontal=1;startSize=26;fillColor=none;horizontalStack=0;resizeParent=1;resizeParentMax=0;resizeLast=0;collapsible=1;marginBottom=0;" vertex="1" parent="1">
          <mxGeometry x="375" y="498" width="140" height="52" as="geometry" />
        </mxCell>
        <mxCell id="3TvEwHp-FLP5A3JZ4EUk-26" value="Количество сезонов" style="text;strokeColor=none;fillColor=none;align=left;verticalAlign=top;spacingLeft=4;spacingRight=4;overflow=hidden;rotatable=0;points=[[0,0.5],[1,0.5]];portConstraint=eastwest;" vertex="1" parent="3TvEwHp-FLP5A3JZ4EUk-25">
          <mxGeometry y="26" width="140" height="26" as="geometry" />
        </mxCell>
        <mxCell id="3TvEwHp-FLP5A3JZ4EUk-27" value="Кинопроизведение" style="swimlane;fontStyle=0;childLayout=stackLayout;horizontal=1;startSize=26;fillColor=none;horizontalStack=0;resizeParent=1;resizeParentMax=0;resizeLast=0;collapsible=1;marginBottom=0;labelBackgroundColor=none;fontColor=#000000;" vertex="1" parent="1">
          <mxGeometry x="500" y="220" width="170" height="226" as="geometry" />
        </mxCell>
        <mxCell id="3TvEwHp-FLP5A3JZ4EUk-28" value="Название" style="text;strokeColor=none;fillColor=none;align=left;verticalAlign=top;spacingLeft=4;spacingRight=4;overflow=hidden;rotatable=0;points=[[0,0.5],[1,0.5]];portConstraint=eastwest;fontColor=#FF0000;" vertex="1" parent="3TvEwHp-FLP5A3JZ4EUk-27">
          <mxGeometry y="26" width="170" height="20" as="geometry" />
        </mxCell>
        <mxCell id="3TvEwHp-FLP5A3JZ4EUk-44" value="Актёрский состав" style="text;strokeColor=none;fillColor=none;align=left;verticalAlign=top;spacingLeft=4;spacingRight=4;overflow=hidden;rotatable=0;points=[[0,0.5],[1,0.5]];portConstraint=eastwest;fontColor=#FF0000;" vertex="1" parent="3TvEwHp-FLP5A3JZ4EUk-27">
          <mxGeometry y="46" width="170" height="20" as="geometry" />
        </mxCell>
        <mxCell id="3TvEwHp-FLP5A3JZ4EUk-45" value="Киностудия(организация)" style="text;strokeColor=none;fillColor=none;align=left;verticalAlign=top;spacingLeft=4;spacingRight=4;overflow=hidden;rotatable=0;points=[[0,0.5],[1,0.5]];portConstraint=eastwest;fontColor=#FF0000;" vertex="1" parent="3TvEwHp-FLP5A3JZ4EUk-27">
          <mxGeometry y="66" width="170" height="20" as="geometry" />
        </mxCell>
        <mxCell id="3TvEwHp-FLP5A3JZ4EUk-46" value="Режиссёр" style="text;strokeColor=none;fillColor=none;align=left;verticalAlign=top;spacingLeft=4;spacingRight=4;overflow=hidden;rotatable=0;points=[[0,0.5],[1,0.5]];portConstraint=eastwest;fontColor=#FF0000;" vertex="1" parent="3TvEwHp-FLP5A3JZ4EUk-27">
          <mxGeometry y="86" width="170" height="20" as="geometry" />
        </mxCell>
        <mxCell id="3TvEwHp-FLP5A3JZ4EUk-47" value="Сценаристы" style="text;strokeColor=none;fillColor=none;align=left;verticalAlign=top;spacingLeft=4;spacingRight=4;overflow=hidden;rotatable=0;points=[[0,0.5],[1,0.5]];portConstraint=eastwest;fontColor=#FF0000;" vertex="1" parent="3TvEwHp-FLP5A3JZ4EUk-27">
          <mxGeometry y="106" width="170" height="20" as="geometry" />
        </mxCell>
        <mxCell id="3TvEwHp-FLP5A3JZ4EUk-48" value="Аннотация" style="text;strokeColor=none;fillColor=none;align=left;verticalAlign=top;spacingLeft=4;spacingRight=4;overflow=hidden;rotatable=0;points=[[0,0.5],[1,0.5]];portConstraint=eastwest;fontColor=#FF0000;" vertex="1" parent="3TvEwHp-FLP5A3JZ4EUk-27">
          <mxGeometry y="126" width="170" height="20" as="geometry" />
        </mxCell>
        <mxCell id="3TvEwHp-FLP5A3JZ4EUk-50" value="Жанр" style="text;strokeColor=none;fillColor=none;align=left;verticalAlign=top;spacingLeft=4;spacingRight=4;overflow=hidden;rotatable=0;points=[[0,0.5],[1,0.5]];portConstraint=eastwest;fontColor=#FF0000;" vertex="1" parent="3TvEwHp-FLP5A3JZ4EUk-27">
          <mxGeometry y="146" width="170" height="20" as="geometry" />
        </mxCell>
        <mxCell id="3TvEwHp-FLP5A3JZ4EUk-51" value="Аннотация" style="text;strokeColor=none;fillColor=none;align=left;verticalAlign=top;spacingLeft=4;spacingRight=4;overflow=hidden;rotatable=0;points=[[0,0.5],[1,0.5]];portConstraint=eastwest;fontColor=#FF0000;" vertex="1" parent="3TvEwHp-FLP5A3JZ4EUk-27">
          <mxGeometry y="166" width="170" height="20" as="geometry" />
        </mxCell>
        <mxCell id="3TvEwHp-FLP5A3JZ4EUk-62" value="Ссылки на ресурсы, &#xa;доступные для просмотра" style="text;strokeColor=none;fillColor=none;align=left;verticalAlign=top;spacingLeft=4;spacingRight=4;overflow=hidden;rotatable=0;points=[[0,0.5],[1,0.5]];portConstraint=eastwest;fontSize=13;fontColor=#000000;" vertex="1" parent="3TvEwHp-FLP5A3JZ4EUk-27">
          <mxGeometry y="186" width="170" height="40" as="geometry" />
        </mxCell>
        <mxCell id="3TvEwHp-FLP5A3JZ4EUk-55" style="edgeStyle=orthogonalEdgeStyle;rounded=0;orthogonalLoop=1;jettySize=auto;html=1;startArrow=diamond;startFill=0;endArrow=none;endFill=0;startSize=10;endSize=10;" edge="1" parent="1" source="3TvEwHp-FLP5A3JZ4EUk-31" target="3TvEwHp-FLP5A3JZ4EUk-100">
          <mxGeometry relative="1" as="geometry">
            <mxPoint x="840" y="510" as="targetPoint" />
            <Array as="points">
              <mxPoint x="840" y="490" />
              <mxPoint x="840" y="490" />
            </Array>
          </mxGeometry>
        </mxCell>
        <mxCell id="3TvEwHp-FLP5A3JZ4EUk-31" value="&lt;&lt;abstract&gt;&gt;&#xa;Список просмотренного" style="swimlane;fontStyle=0;childLayout=stackLayout;horizontal=1;startSize=60;fillColor=none;horizontalStack=0;resizeParent=1;resizeParentMax=0;resizeLast=0;collapsible=1;marginBottom=0;" vertex="1" parent="1">
          <mxGeometry x="770" y="630" width="140" height="50" as="geometry" />
        </mxCell>
        <mxCell id="3TvEwHp-FLP5A3JZ4EUk-33" style="edgeStyle=orthogonalEdgeStyle;rounded=0;orthogonalLoop=1;jettySize=auto;html=1;endSize=10;startSize=10;endArrow=block;endFill=0;" edge="1" source="3TvEwHp-FLP5A3JZ4EUk-34" target="3TvEwHp-FLP5A3JZ4EUk-31" parent="1">
          <mxGeometry relative="1" as="geometry" />
        </mxCell>
        <mxCell id="3TvEwHp-FLP5A3JZ4EUk-34" value="Публичный список просмотренного" style="swimlane;fontStyle=0;childLayout=stackLayout;horizontal=1;startSize=42;fillColor=none;horizontalStack=0;resizeParent=1;resizeParentMax=0;resizeLast=0;collapsible=1;marginBottom=0;" vertex="1" parent="1">
          <mxGeometry x="620" y="748" width="200" height="32" as="geometry" />
        </mxCell>
        <mxCell id="3TvEwHp-FLP5A3JZ4EUk-36" style="edgeStyle=orthogonalEdgeStyle;rounded=0;orthogonalLoop=1;jettySize=auto;html=1;endArrow=block;endFill=0;startSize=10;endSize=10;" edge="1" source="3TvEwHp-FLP5A3JZ4EUk-37" target="3TvEwHp-FLP5A3JZ4EUk-31" parent="1">
          <mxGeometry relative="1" as="geometry" />
        </mxCell>
        <mxCell id="3TvEwHp-FLP5A3JZ4EUk-37" value="Скрытый список просмотренного" style="swimlane;fontStyle=0;childLayout=stackLayout;horizontal=1;startSize=42;fillColor=none;horizontalStack=0;resizeParent=1;resizeParentMax=0;resizeLast=0;collapsible=1;marginBottom=0;" vertex="1" parent="1">
          <mxGeometry x="880" y="748" width="190" height="32" as="geometry" />
        </mxCell>
        <mxCell id="3TvEwHp-FLP5A3JZ4EUk-41" value="Сезон сериала" style="swimlane;fontStyle=0;childLayout=stackLayout;horizontal=1;startSize=26;fillColor=none;horizontalStack=0;resizeParent=1;resizeParentMax=0;resizeLast=0;collapsible=1;marginBottom=0;" vertex="1" parent="1">
          <mxGeometry x="337.5" y="610" width="215" height="86" as="geometry" />
        </mxCell>
        <mxCell id="3TvEwHp-FLP5A3JZ4EUk-42" value="Дата выхода" style="text;strokeColor=none;fillColor=none;align=left;verticalAlign=top;spacingLeft=4;spacingRight=4;overflow=hidden;rotatable=0;points=[[0,0.5],[1,0.5]];portConstraint=eastwest;" vertex="1" parent="3TvEwHp-FLP5A3JZ4EUk-41">
          <mxGeometry y="26" width="215" height="20" as="geometry" />
        </mxCell>
        <mxCell id="3TvEwHp-FLP5A3JZ4EUk-53" value="Число серий" style="text;strokeColor=none;fillColor=none;align=left;verticalAlign=top;spacingLeft=4;spacingRight=4;overflow=hidden;rotatable=0;points=[[0,0.5],[1,0.5]];portConstraint=eastwest;" vertex="1" parent="3TvEwHp-FLP5A3JZ4EUk-41">
          <mxGeometry y="46" width="215" height="20" as="geometry" />
        </mxCell>
        <mxCell id="3TvEwHp-FLP5A3JZ4EUk-54" value="Средняя продолжительность серии" style="text;strokeColor=none;fillColor=none;align=left;verticalAlign=top;spacingLeft=4;spacingRight=4;overflow=hidden;rotatable=0;points=[[0,0.5],[1,0.5]];portConstraint=eastwest;" vertex="1" parent="3TvEwHp-FLP5A3JZ4EUk-41">
          <mxGeometry y="66" width="215" height="20" as="geometry" />
        </mxCell>
        <mxCell id="3TvEwHp-FLP5A3JZ4EUk-75" style="edgeStyle=orthogonalEdgeStyle;rounded=0;orthogonalLoop=1;jettySize=auto;html=1;fontSize=13;startArrow=diamond;startFill=1;endArrow=none;endFill=0;startSize=10;endSize=10;" edge="1" parent="1" source="3TvEwHp-FLP5A3JZ4EUk-68" target="3TvEwHp-FLP5A3JZ4EUk-72">
          <mxGeometry relative="1" as="geometry">
            <Array as="points">
              <mxPoint x="650" y="-106" />
            </Array>
          </mxGeometry>
        </mxCell>
        <mxCell id="3TvEwHp-FLP5A3JZ4EUk-122" value="получает" style="edgeLabel;html=1;align=center;verticalAlign=middle;resizable=0;points=[];fontSize=13;" vertex="1" connectable="0" parent="3TvEwHp-FLP5A3JZ4EUk-75">
          <mxGeometry x="-0.2352" relative="1" as="geometry">
            <mxPoint as="offset" />
          </mxGeometry>
        </mxCell>
        <mxCell id="3TvEwHp-FLP5A3JZ4EUk-111" style="edgeStyle=orthogonalEdgeStyle;rounded=0;orthogonalLoop=1;jettySize=auto;html=1;fontSize=13;startArrow=diamond;startFill=1;endArrow=none;endFill=0;startSize=10;endSize=10;" edge="1" parent="1" source="3TvEwHp-FLP5A3JZ4EUk-68" target="3TvEwHp-FLP5A3JZ4EUk-98">
          <mxGeometry relative="1" as="geometry">
            <Array as="points">
              <mxPoint x="690" y="-320" />
              <mxPoint x="760" y="-320" />
            </Array>
          </mxGeometry>
        </mxCell>
        <mxCell id="3TvEwHp-FLP5A3JZ4EUk-112" style="edgeStyle=orthogonalEdgeStyle;rounded=0;orthogonalLoop=1;jettySize=auto;html=1;fontSize=13;startArrow=diamond;startFill=1;endArrow=none;endFill=0;startSize=10;endSize=10;" edge="1" parent="1" source="3TvEwHp-FLP5A3JZ4EUk-68" target="3TvEwHp-FLP5A3JZ4EUk-96">
          <mxGeometry relative="1" as="geometry">
            <Array as="points">
              <mxPoint x="660" y="-320" />
              <mxPoint x="540" y="-320" />
            </Array>
          </mxGeometry>
        </mxCell>
        <mxCell id="3TvEwHp-FLP5A3JZ4EUk-68" value="Друг" style="swimlane;fontStyle=0;childLayout=stackLayout;horizontal=1;startSize=26;fillColor=none;horizontalStack=0;resizeParent=1;resizeParentMax=0;resizeLast=0;collapsible=1;marginBottom=0;" vertex="1" parent="1">
          <mxGeometry x="620" y="-240" width="140" height="52" as="geometry" />
        </mxCell>
        <mxCell id="3TvEwHp-FLP5A3JZ4EUk-69" value="+ field: type" style="text;strokeColor=none;fillColor=none;align=left;verticalAlign=top;spacingLeft=4;spacingRight=4;overflow=hidden;rotatable=0;points=[[0,0.5],[1,0.5]];portConstraint=eastwest;" vertex="1" parent="3TvEwHp-FLP5A3JZ4EUk-68">
          <mxGeometry y="26" width="140" height="26" as="geometry" />
        </mxCell>
        <mxCell id="3TvEwHp-FLP5A3JZ4EUk-72" value="&lt;abstract&gt;&gt;&#xa;Личное сообщение" style="swimlane;fontStyle=0;childLayout=stackLayout;horizontal=1;startSize=26;fillColor=none;horizontalStack=0;resizeParent=1;resizeParentMax=0;resizeLast=0;collapsible=1;marginBottom=0;" vertex="1" parent="1">
          <mxGeometry x="390" y="-162" width="140" height="78" as="geometry" />
        </mxCell>
        <mxCell id="3TvEwHp-FLP5A3JZ4EUk-73" value="Дата отправления" style="text;strokeColor=none;fillColor=none;align=left;verticalAlign=top;spacingLeft=4;spacingRight=4;overflow=hidden;rotatable=0;points=[[0,0.5],[1,0.5]];portConstraint=eastwest;" vertex="1" parent="3TvEwHp-FLP5A3JZ4EUk-72">
          <mxGeometry y="26" width="140" height="26" as="geometry" />
        </mxCell>
        <mxCell id="3TvEwHp-FLP5A3JZ4EUk-127" value="Текст сообщения" style="text;strokeColor=none;fillColor=none;align=left;verticalAlign=top;spacingLeft=4;spacingRight=4;overflow=hidden;rotatable=0;points=[[0,0.5],[1,0.5]];portConstraint=eastwest;" vertex="1" parent="3TvEwHp-FLP5A3JZ4EUk-72">
          <mxGeometry y="52" width="140" height="26" as="geometry" />
        </mxCell>
        <mxCell id="3TvEwHp-FLP5A3JZ4EUk-82" style="edgeStyle=orthogonalEdgeStyle;rounded=0;orthogonalLoop=1;jettySize=auto;html=1;fontSize=13;startArrow=none;startFill=0;endArrow=block;endFill=0;startSize=10;endSize=10;" edge="1" parent="1" source="3TvEwHp-FLP5A3JZ4EUk-77" target="3TvEwHp-FLP5A3JZ4EUk-72">
          <mxGeometry relative="1" as="geometry">
            <Array as="points">
              <mxPoint x="570" y="-40" />
              <mxPoint x="460" y="-40" />
            </Array>
          </mxGeometry>
        </mxCell>
        <mxCell id="3TvEwHp-FLP5A3JZ4EUk-77" value="Простое сообщение" style="swimlane;fontStyle=0;childLayout=stackLayout;horizontal=1;startSize=40;fillColor=none;horizontalStack=0;resizeParent=1;resizeParentMax=0;resizeLast=0;collapsible=1;marginBottom=0;" vertex="1" parent="1">
          <mxGeometry x="500" width="140" height="40" as="geometry" />
        </mxCell>
        <mxCell id="3TvEwHp-FLP5A3JZ4EUk-81" style="edgeStyle=orthogonalEdgeStyle;rounded=0;orthogonalLoop=1;jettySize=auto;html=1;fontSize=13;startArrow=none;startFill=0;endArrow=block;endFill=0;startSize=10;endSize=10;" edge="1" parent="1" source="3TvEwHp-FLP5A3JZ4EUk-79" target="3TvEwHp-FLP5A3JZ4EUk-72">
          <mxGeometry relative="1" as="geometry">
            <Array as="points">
              <mxPoint x="380" y="-40" />
              <mxPoint x="460" y="-40" />
            </Array>
          </mxGeometry>
        </mxCell>
        <mxCell id="3TvEwHp-FLP5A3JZ4EUk-83" style="edgeStyle=orthogonalEdgeStyle;rounded=0;orthogonalLoop=1;jettySize=auto;html=1;entryX=0.5;entryY=0;entryDx=0;entryDy=0;fontSize=13;startArrow=none;startFill=0;endArrow=open;endFill=0;startSize=10;endSize=10;strokeColor=#CC0066;" edge="1" parent="1" source="3TvEwHp-FLP5A3JZ4EUk-79" target="3TvEwHp-FLP5A3JZ4EUk-27">
          <mxGeometry relative="1" as="geometry">
            <Array as="points">
              <mxPoint x="380" y="170" />
              <mxPoint x="585" y="170" />
            </Array>
          </mxGeometry>
        </mxCell>
        <mxCell id="3TvEwHp-FLP5A3JZ4EUk-84" value="Содержит" style="edgeLabel;html=1;align=center;verticalAlign=middle;resizable=0;points=[];fontSize=13;" vertex="1" connectable="0" parent="3TvEwHp-FLP5A3JZ4EUk-83">
          <mxGeometry x="0.3461" y="-4" relative="1" as="geometry">
            <mxPoint as="offset" />
          </mxGeometry>
        </mxCell>
        <mxCell id="3TvEwHp-FLP5A3JZ4EUk-79" value="Рекомендация" style="swimlane;fontStyle=0;childLayout=stackLayout;horizontal=1;startSize=40;fillColor=none;horizontalStack=0;resizeParent=1;resizeParentMax=0;resizeLast=0;collapsible=1;marginBottom=0;" vertex="1" parent="1">
          <mxGeometry x="310" width="140" height="40" as="geometry" />
        </mxCell>
        <mxCell id="3TvEwHp-FLP5A3JZ4EUk-86" value="Кинопроизведение в рекомендации обязано быть в списке просмотренного отправившего пользователя" style="shape=note;whiteSpace=wrap;html=1;backgroundOutline=1;darkOpacity=0.05;fontSize=13;" vertex="1" parent="1">
          <mxGeometry x="-60" y="-620" width="300" height="100" as="geometry" />
        </mxCell>
        <mxCell id="3TvEwHp-FLP5A3JZ4EUk-87" value="" style="endArrow=none;dashed=1;html=1;rounded=0;fontSize=13;startSize=10;endSize=10;exitX=1;exitY=1;exitDx=0;exitDy=0;exitPerimeter=0;" edge="1" parent="1" source="3TvEwHp-FLP5A3JZ4EUk-86" target="3TvEwHp-FLP5A3JZ4EUk-79">
          <mxGeometry width="50" height="50" relative="1" as="geometry">
            <mxPoint x="550" y="60" as="sourcePoint" />
            <mxPoint x="600" y="10" as="targetPoint" />
          </mxGeometry>
        </mxCell>
        <mxCell id="3TvEwHp-FLP5A3JZ4EUk-88" value="В данном случае друг - любой другой пользователь, принявший заявку в друзья от пользователя или чью заявку принял пользователь. Показан только функционал, который имеет пользователь по отношению к другу, так как мы являемся другом для него и он имеет те же связи по отношению к нам" style="shape=note;whiteSpace=wrap;html=1;backgroundOutline=1;darkOpacity=0.05;fontSize=13;" vertex="1" parent="1">
          <mxGeometry x="900" y="-260" width="300" height="140" as="geometry" />
        </mxCell>
        <mxCell id="3TvEwHp-FLP5A3JZ4EUk-92" value="" style="endArrow=none;dashed=1;html=1;rounded=0;fontSize=13;startSize=10;endSize=10;" edge="1" parent="1" source="3TvEwHp-FLP5A3JZ4EUk-88" target="3TvEwHp-FLP5A3JZ4EUk-68">
          <mxGeometry width="50" height="50" relative="1" as="geometry">
            <mxPoint x="550" y="-80" as="sourcePoint" />
            <mxPoint x="600" y="-130" as="targetPoint" />
          </mxGeometry>
        </mxCell>
        <mxCell id="3TvEwHp-FLP5A3JZ4EUk-93" value="Недоступны для любых других пользователей" style="shape=note;whiteSpace=wrap;html=1;backgroundOutline=1;darkOpacity=0.05;fontSize=13;" vertex="1" parent="1">
          <mxGeometry x="405" y="920" width="300" height="100" as="geometry" />
        </mxCell>
        <mxCell id="3TvEwHp-FLP5A3JZ4EUk-94" value="" style="endArrow=none;dashed=1;html=1;rounded=0;fontSize=13;startSize=10;endSize=10;" edge="1" parent="1" source="3TvEwHp-FLP5A3JZ4EUk-93" target="3TvEwHp-FLP5A3JZ4EUk-17">
          <mxGeometry width="50" height="50" relative="1" as="geometry">
            <mxPoint x="410" y="910" as="sourcePoint" />
            <mxPoint x="460" y="860" as="targetPoint" />
          </mxGeometry>
        </mxCell>
        <mxCell id="3TvEwHp-FLP5A3JZ4EUk-95" value="" style="endArrow=none;dashed=1;html=1;rounded=0;fontSize=13;startSize=10;endSize=10;" edge="1" parent="1" source="3TvEwHp-FLP5A3JZ4EUk-93" target="3TvEwHp-FLP5A3JZ4EUk-37">
          <mxGeometry width="50" height="50" relative="1" as="geometry">
            <mxPoint x="506.9642857142858" y="930" as="sourcePoint" />
            <mxPoint x="367.6785714285711" y="810" as="targetPoint" />
          </mxGeometry>
        </mxCell>
        <mxCell id="3TvEwHp-FLP5A3JZ4EUk-96" value="Публичный список желаний" style="swimlane;fontStyle=0;childLayout=stackLayout;horizontal=1;startSize=110;fillColor=none;horizontalStack=0;resizeParent=1;resizeParentMax=0;resizeLast=0;collapsible=1;marginBottom=0;" vertex="1" parent="1">
          <mxGeometry x="500" y="-400" width="160" height="40" as="geometry" />
        </mxCell>
        <mxCell id="3TvEwHp-FLP5A3JZ4EUk-98" value="Публичный список просмотренного" style="swimlane;fontStyle=0;childLayout=stackLayout;horizontal=1;startSize=50;fillColor=none;horizontalStack=0;resizeParent=1;resizeParentMax=0;resizeLast=0;collapsible=1;marginBottom=0;" vertex="1" parent="1">
          <mxGeometry x="690" y="-400" width="200" height="40" as="geometry" />
        </mxCell>
        <mxCell id="3TvEwHp-FLP5A3JZ4EUk-110" style="edgeStyle=orthogonalEdgeStyle;rounded=0;orthogonalLoop=1;jettySize=auto;html=1;fontSize=13;startArrow=none;startFill=0;endArrow=open;endFill=0;startSize=10;endSize=10;" edge="1" parent="1" source="3TvEwHp-FLP5A3JZ4EUk-100" target="3TvEwHp-FLP5A3JZ4EUk-27">
          <mxGeometry relative="1" as="geometry">
            <Array as="points">
              <mxPoint x="840" y="333" />
            </Array>
          </mxGeometry>
        </mxCell>
        <mxCell id="3TvEwHp-FLP5A3JZ4EUk-100" value="Просмотренное кинопроизведение" style="swimlane;fontStyle=0;childLayout=stackLayout;horizontal=1;startSize=26;fillColor=none;horizontalStack=0;resizeParent=1;resizeParentMax=0;resizeLast=0;collapsible=1;marginBottom=0;" vertex="1" parent="1">
          <mxGeometry x="740" y="410" width="200" height="66" as="geometry" />
        </mxCell>
        <mxCell id="3TvEwHp-FLP5A3JZ4EUk-105" value="Оценка от 0 до 10" style="text;strokeColor=none;fillColor=none;align=left;verticalAlign=top;spacingLeft=4;spacingRight=4;overflow=hidden;rotatable=0;points=[[0,0.5],[1,0.5]];portConstraint=eastwest;" vertex="1" parent="3TvEwHp-FLP5A3JZ4EUk-100">
          <mxGeometry y="26" width="200" height="20" as="geometry" />
        </mxCell>
        <mxCell id="3TvEwHp-FLP5A3JZ4EUk-117" value="Оценочный комментарий(текст)" style="text;strokeColor=none;fillColor=none;align=left;verticalAlign=top;spacingLeft=4;spacingRight=4;overflow=hidden;rotatable=0;points=[[0,0.5],[1,0.5]];portConstraint=eastwest;" vertex="1" parent="3TvEwHp-FLP5A3JZ4EUk-100">
          <mxGeometry y="46" width="200" height="20" as="geometry" />
        </mxCell>
        <mxCell id="3TvEwHp-FLP5A3JZ4EUk-115" style="edgeStyle=orthogonalEdgeStyle;rounded=0;orthogonalLoop=1;jettySize=auto;html=1;fontSize=13;startArrow=none;startFill=0;endArrow=open;endFill=0;startSize=10;endSize=10;" edge="1" parent="1" source="3TvEwHp-FLP5A3JZ4EUk-1" target="3TvEwHp-FLP5A3JZ4EUk-98">
          <mxGeometry relative="1" as="geometry">
            <mxPoint x="75.00000000000045" y="34" as="sourcePoint" />
            <mxPoint x="374.99999999999955" y="-400" as="targetPoint" />
            <Array as="points">
              <mxPoint x="90" y="70" />
              <mxPoint x="90" y="-440" />
              <mxPoint x="790" y="-440" />
            </Array>
          </mxGeometry>
        </mxCell>
        <mxCell id="3TvEwHp-FLP5A3JZ4EUk-116" value="может только просмотреть" style="edgeLabel;html=1;align=center;verticalAlign=middle;resizable=0;points=[];fontSize=13;" vertex="1" connectable="0" parent="3TvEwHp-FLP5A3JZ4EUk-115">
          <mxGeometry x="-0.169" y="2" relative="1" as="geometry">
            <mxPoint as="offset" />
          </mxGeometry>
        </mxCell>
        <mxCell id="3TvEwHp-FLP5A3JZ4EUk-119" value="0..*" style="text;html=1;align=center;verticalAlign=middle;resizable=0;points=[];autosize=1;strokeColor=none;fillColor=none;fontSize=13;" vertex="1" parent="1">
          <mxGeometry x="360" y="-124" width="30" height="20" as="geometry" />
        </mxCell>
        <mxCell id="3TvEwHp-FLP5A3JZ4EUk-120" value="0..*" style="text;html=1;align=center;verticalAlign=middle;resizable=0;points=[];autosize=1;strokeColor=none;fillColor=none;fontSize=13;" vertex="1" parent="1">
          <mxGeometry x="530" y="-124" width="30" height="20" as="geometry" />
        </mxCell>
        <mxCell id="3TvEwHp-FLP5A3JZ4EUk-123" value="Соответствуют сущностям пользователя, только принадлежат другу" style="shape=note;whiteSpace=wrap;html=1;backgroundOutline=1;darkOpacity=0.05;fontSize=13;" vertex="1" parent="1">
          <mxGeometry x="480" y="-585" width="300" height="70" as="geometry" />
        </mxCell>
        <mxCell id="3TvEwHp-FLP5A3JZ4EUk-124" value="" style="endArrow=none;dashed=1;html=1;rounded=0;fontSize=13;startSize=10;endSize=10;" edge="1" parent="1" source="3TvEwHp-FLP5A3JZ4EUk-123" target="3TvEwHp-FLP5A3JZ4EUk-96">
          <mxGeometry width="50" height="50" relative="1" as="geometry">
            <mxPoint x="419.1700000000004" y="-550" as="sourcePoint" />
            <mxPoint x="552.5033333333334" y="-30" as="targetPoint" />
          </mxGeometry>
        </mxCell>
        <mxCell id="3TvEwHp-FLP5A3JZ4EUk-125" value="" style="endArrow=none;dashed=1;html=1;rounded=0;fontSize=13;startSize=10;endSize=10;" edge="1" parent="1" source="3TvEwHp-FLP5A3JZ4EUk-123" target="3TvEwHp-FLP5A3JZ4EUk-98">
          <mxGeometry width="50" height="50" relative="1" as="geometry">
            <mxPoint x="675.1612903225805" y="-490" as="sourcePoint" />
            <mxPoint x="604.1935483870966" y="-390" as="targetPoint" />
          </mxGeometry>
        </mxCell>
        <mxCell id="3TvEwHp-FLP5A3JZ4EUk-128" value="0..*" style="text;html=1;align=center;verticalAlign=middle;resizable=0;points=[];autosize=1;strokeColor=none;fillColor=none;fontSize=13;" vertex="1" parent="1">
          <mxGeometry x="590" y="-240" width="30" height="20" as="geometry" />
        </mxCell>
        <mxCell id="3TvEwHp-FLP5A3JZ4EUk-129" value="1" style="text;html=1;align=center;verticalAlign=middle;resizable=0;points=[];autosize=1;strokeColor=none;fillColor=none;fontSize=13;" vertex="1" parent="1">
          <mxGeometry x="595" y="200" width="20" height="20" as="geometry" />
        </mxCell>
        <mxCell id="3TvEwHp-FLP5A3JZ4EUk-130" value="0..*" style="text;html=1;align=center;verticalAlign=middle;resizable=0;points=[];autosize=1;strokeColor=none;fillColor=none;fontSize=13;" vertex="1" parent="1">
          <mxGeometry x="470" y="307" width="30" height="20" as="geometry" />
        </mxCell>
        <mxCell id="3TvEwHp-FLP5A3JZ4EUk-131" value="1" style="text;html=1;align=center;verticalAlign=middle;resizable=0;points=[];autosize=1;strokeColor=none;fillColor=none;fontSize=13;" vertex="1" parent="1">
          <mxGeometry x="240" y="287" width="20" height="20" as="geometry" />
        </mxCell>
        <mxCell id="3TvEwHp-FLP5A3JZ4EUk-132" value="1" style="text;html=1;align=center;verticalAlign=middle;resizable=0;points=[];autosize=1;strokeColor=none;fillColor=none;fontSize=13;" vertex="1" parent="1">
          <mxGeometry x="670" y="307" width="20" height="20" as="geometry" />
        </mxCell>
        <mxCell id="3TvEwHp-FLP5A3JZ4EUk-133" value="1..*" style="text;html=1;align=center;verticalAlign=middle;resizable=0;points=[];autosize=1;strokeColor=none;fillColor=none;fontSize=13;" vertex="1" parent="1">
          <mxGeometry x="445" y="590" width="30" height="20" as="geometry" />
        </mxCell>
        <mxCell id="3TvEwHp-FLP5A3JZ4EUk-134" value="0..*" style="text;html=1;align=center;verticalAlign=middle;resizable=0;points=[];autosize=1;strokeColor=none;fillColor=none;fontSize=13;" vertex="1" parent="1">
          <mxGeometry x="470" y="370" width="30" height="20" as="geometry" />
        </mxCell>
        <mxCell id="3TvEwHp-FLP5A3JZ4EUk-135" value="0..*" style="text;html=1;align=center;verticalAlign=middle;resizable=0;points=[];autosize=1;strokeColor=none;fillColor=none;fontSize=13;" vertex="1" parent="1">
          <mxGeometry x="840" y="478" width="30" height="20" as="geometry" />
        </mxCell>
        <mxCell id="3TvEwHp-FLP5A3JZ4EUk-136" value="Личное сообщение не может существовать без отправителя И получателя" style="shape=note;whiteSpace=wrap;html=1;backgroundOutline=1;darkOpacity=0.05;fontSize=13;" vertex="1" parent="1">
          <mxGeometry x="720" y="-50" width="300" height="100" as="geometry" />
        </mxCell>
        <mxCell id="3TvEwHp-FLP5A3JZ4EUk-137" value="" style="endArrow=none;dashed=1;html=1;rounded=0;fontSize=13;startSize=10;endSize=10;" edge="1" parent="1" source="3TvEwHp-FLP5A3JZ4EUk-72" target="3TvEwHp-FLP5A3JZ4EUk-136">
          <mxGeometry width="50" height="50" relative="1" as="geometry">
            <mxPoint x="909.9999999999995" y="-190" as="sourcePoint" />
            <mxPoint x="769.9999999999995" y="-199.33333333333348" as="targetPoint" />
          </mxGeometry>
        </mxCell>
        <mxCell id="3TvEwHp-FLP5A3JZ4EUk-138" value="1" style="text;html=1;align=center;verticalAlign=middle;resizable=0;points=[];autosize=1;strokeColor=none;fillColor=none;fontSize=13;" vertex="1" parent="1">
          <mxGeometry x="20" y="728" width="20" height="20" as="geometry" />
        </mxCell>
        <mxCell id="3TvEwHp-FLP5A3JZ4EUk-139" style="edgeStyle=orthogonalEdgeStyle;rounded=0;orthogonalLoop=1;jettySize=auto;html=1;fontSize=13;startArrow=diamond;startFill=1;endArrow=none;endFill=0;startSize=10;endSize=10;" edge="1" parent="1" source="3TvEwHp-FLP5A3JZ4EUk-1" target="3TvEwHp-FLP5A3JZ4EUk-17">
          <mxGeometry relative="1" as="geometry">
            <mxPoint x="179.99999999999955" y="96" as="sourcePoint" />
            <mxPoint x="60" y="758" as="targetPoint" />
            <Array as="points">
              <mxPoint x="-10" y="86" />
              <mxPoint x="-10" y="810" />
              <mxPoint x="328" y="810" />
            </Array>
          </mxGeometry>
        </mxCell>
        <mxCell id="3TvEwHp-FLP5A3JZ4EUk-140" value="1" style="text;html=1;align=center;verticalAlign=middle;resizable=0;points=[];autosize=1;strokeColor=none;fillColor=none;fontSize=13;" vertex="1" parent="1">
          <mxGeometry x="300" y="780" width="20" height="20" as="geometry" />
        </mxCell>
        <mxCell id="3TvEwHp-FLP5A3JZ4EUk-141" style="edgeStyle=orthogonalEdgeStyle;rounded=0;orthogonalLoop=1;jettySize=auto;html=1;fontSize=13;startArrow=diamond;startFill=1;endArrow=none;endFill=0;startSize=10;endSize=10;" edge="1" parent="1" source="3TvEwHp-FLP5A3JZ4EUk-1" target="3TvEwHp-FLP5A3JZ4EUk-34">
          <mxGeometry relative="1" as="geometry">
            <mxPoint x="319.99999999999955" y="96" as="sourcePoint" />
            <mxPoint x="919.9999999999995" y="673.0588235294117" as="targetPoint" />
            <Array as="points">
              <mxPoint x="1090" y="70" />
              <mxPoint x="1090" y="810" />
              <mxPoint x="720" y="810" />
            </Array>
          </mxGeometry>
        </mxCell>
        <mxCell id="3TvEwHp-FLP5A3JZ4EUk-142" value="1" style="text;html=1;align=center;verticalAlign=middle;resizable=0;points=[];autosize=1;strokeColor=none;fillColor=none;fontSize=13;" vertex="1" parent="1">
          <mxGeometry x="720" y="780" width="20" height="20" as="geometry" />
        </mxCell>
        <mxCell id="3TvEwHp-FLP5A3JZ4EUk-143" value="1" style="text;html=1;align=center;verticalAlign=middle;resizable=0;points=[];autosize=1;strokeColor=none;fillColor=none;fontSize=13;" vertex="1" parent="1">
          <mxGeometry x="1010" y="728" width="20" height="20" as="geometry" />
        </mxCell>
      </root>
    </mxGraphModel>
  </diagram>
</mxfile>
